<?xml version="1.0" standalone="no"?>
<!DOCTYPE svg PUBLIC "-//W3C//DTD SVG 20010904//EN"
 "http://www.w3.org/TR/2001/REC-SVG-20010904/DTD/svg10.dtd">
<svg version="1.0" xmlns="http://www.w3.org/2000/svg"
 width="300.000000pt" height="300.000000pt" viewBox="0 0 300.000000 300.000000"
 preserveAspectRatio="xMidYMid meet">
<metadata>
Created by potrace 1.10, written by Peter Selinger 2001-2011
</metadata>
<g transform="translate(0.000000,300.000000) scale(0.100000,-0.100000)"
fill="#000000" stroke="none">
<path d="M1800 1720 c0 -22 5 -59 12 -83 10 -40 9 -47 -11 -75 -29 -42 -49
-91 -77 -189 l-22 -81 31 -12 c18 -7 49 -19 69 -27 25 -11 53 -14 85 -10 80
10 137 25 141 36 2 6 9 11 16 11 30 0 -10 134 -75 257 -27 49 -28 54 -14 95
18 58 26 118 15 118 -5 0 -20 -11 -34 -25 -14 -14 -37 -25 -51 -25 -15 0 -36
11 -49 25 -31 34 -36 32 -36 -15z m123 -89 c-4 -39 0 -58 26 -115 62 -131 75
-177 57 -202 -20 -27 -132 -44 -188 -27 -66 19 -74 33 -59 96 15 60 34 106 69
161 20 33 23 47 18 86 -3 25 -4 49 -2 51 3 3 23 3 45 1 l40 -4 -6 -47z"/>
<path d="M1614 1705 c-9 -23 3 -45 24 -45 25 0 44 23 36 44 -8 20 -53 21 -60
1z"/>
<path d="M978 1678 c17 -17 17 -229 0 -246 -9 -9 2 -12 52 -12 50 0 61 3 52
12 -14 14 -16 118 -2 118 6 0 19 -9 30 -20 11 -11 20 -24 20 -30 0 -5 3 -10 8
-10 4 0 5 27 4 60 l-4 60 -20 -25 c-34 -43 -48 -33 -48 35 0 52 2 60 19 60 18
0 46 -27 83 -80 17 -25 17 -25 17 33 l1 57 -112 0 c-87 0 -109 -3 -100 -12z"/>
<path d="M1262 1627 c-36 -21 -55 -57 -55 -105 0 -38 5 -50 31 -74 44 -38 89
-38 127 2 l28 29 -36 -6 c-30 -4 -40 -1 -64 23 l-28 28 42 8 c85 14 102 40 58
83 -27 27 -66 32 -103 12z m42 -29 c26 -37 21 -58 -14 -58 -27 0 -30 3 -30 33
0 52 18 62 44 25z"/>
<path d="M1428 1623 c-28 -33 -33 -47 -15 -40 15 6 17 -3 17 -66 0 -44 -5 -78
-12 -85 -9 -9 0 -12 42 -12 42 0 51 3 42 12 -17 17 -16 148 1 148 7 0 18 -5
25 -12 10 -10 17 -7 34 10 l22 22 -22 22 -22 23 -24 -29 -23 -30 -7 27 c-7 31
-35 36 -58 10z"/>
<path d="M1600 1626 c15 -15 13 -179 -2 -194 -9 -9 1 -12 47 -12 46 0 56 3 47
12 -8 8 -12 47 -12 108 l0 95 -45 0 c-29 0 -41 -3 -35 -9z"/>
<path d="M1610 1388 c0 -5 9 -8 21 -8 19 0 21 -5 17 -50 -2 -29 1 -50 7 -50 6
0 9 21 7 50 -4 45 -2 50 17 50 12 0 21 3 21 8 0 4 -20 7 -45 7 -25 0 -45 -3
-45 -7z"/>
<path d="M980 1336 c0 -52 2 -56 24 -56 30 0 51 24 41 47 -4 10 -8 27 -9 38
-1 14 -9 21 -28 23 -28 3 -28 2 -28 -52z m38 27 c-1 -10 1 -24 6 -31 9 -15 1
-42 -14 -42 -5 0 -10 20 -10 45 0 25 5 45 11 45 5 0 9 -8 7 -17z"/>
<path d="M1070 1335 c0 -30 5 -55 10 -55 6 0 10 23 10 50 0 38 4 50 15 50 17
0 20 -25 5 -35 -15 -9 -12 -19 10 -43 19 -20 71 -31 69 -14 -6 36 39 47 48 12
3 -11 9 -20 14 -20 13 0 11 9 -15 65 l-24 50 -22 -52 c-24 -57 -38 -65 -58
-32 -10 16 -10 24 -1 35 18 22 3 44 -31 44 -30 0 -30 0 -30 -55z"/>
<path d="M1280 1335 c0 -30 4 -55 9 -55 5 0 7 19 4 43 l-5 42 46 -45 46 -44 0
57 c0 31 -3 57 -8 57 -4 0 -6 -19 -4 -42 l3 -43 -41 43 c-23 23 -43 42 -46 42
-2 0 -4 -25 -4 -55z"/>
<path d="M1410 1335 l0 -55 34 0 c42 0 66 22 66 59 0 37 -17 51 -62 51 l-38 0
0 -55z m80 26 c5 -11 10 -24 10 -30 0 -16 -30 -41 -51 -41 -16 0 -19 7 -19 45
0 41 2 45 25 45 14 0 29 -8 35 -19z"/>
<path d="M1575 1335 c0 -30 5 -55 10 -55 6 0 9 23 7 55 -5 71 -17 71 -17 0z"/>
</g>
</svg>
